<svg xmlns="http://www.w3.org/2000/svg" xmlns:xlink="http://www.w3.org/1999/xlink" viewBox="0 0 808.14 801.42"><defs><style>.cls-1{fill:none;}.cls-2{clip-path:url(#clip-path);}.cls-3{fill:#d8f2f0;}.cls-4{fill:#65ccc3;}</style><clipPath id="clip-path" transform="translate(49.84 52.68)"><rect class="cls-1" width="700.09" height="700.09"/></clipPath></defs><g id="Capa_2" data-name="Capa 2"><g id="OBJECTS"><g class="cls-2"><rect class="cls-3" width="800" height="800"/><polygon class="cls-4" points="208.88 651.2 8.14 651.2 8.14 655.8 206.98 655.8 245.35 694.17 248.61 690.92 208.88 651.2"/><polygon class="cls-4" points="221.11 631.67 8.14 631.67 8.14 636.27 219.21 636.27 258.26 675.32 403.18 675.32 403.18 670.72 260.16 670.72 221.11 631.67"/><circle class="cls-4" cx="197.14" cy="639.86" r="9.22" transform="translate(-344.87 379.49) rotate(-45)"/><circle class="cls-4" cx="256.22" cy="651.12" r="9.22" transform="translate(-391.31 646.61) rotate(-63.83)"/><circle class="cls-4" cx="170.46" cy="704.82" r="9.22"/><circle class="cls-4" cx="403.18" cy="673.02" r="9.22"/><circle class="cls-4" cx="456.7" cy="580.78" r="9.22" transform="translate(-34.41 130.22) rotate(-8.89)"/><circle class="cls-4" cx="439.16" cy="522.86" r="9.22" transform="translate(-54.04 161.6) rotate(-12.66)"/><circle class="cls-4" cx="645.88" cy="523.05" r="9.22" transform="translate(-105.78 795.58) rotate(-54.34)"/><circle class="cls-4" cx="574.39" cy="552.92" r="9.22" transform="translate(-61.45 198.8) rotate(-13.23)"/><circle class="cls-4" cx="593.34" cy="482.36" r="9.22" transform="translate(-45.42 202.55) rotate(-13.34)"/><circle class="cls-4" cx="540.37" cy="589.71" r="9.22" transform="translate(-71.61 193.23) rotate(-13.34)"/><circle class="cls-4" cx="690.62" cy="523.05" r="9.22" transform="matrix(0.97, -0.23, 0.23, 0.97, -51.53, 224.61)"/><circle class="cls-4" cx="695.89" cy="637.16" r="9.22" transform="translate(-196.84 647.68) rotate(-39.92)"/><circle class="cls-4" cx="335.64" cy="522.8" r="9.22" transform="translate(-223.5 698.41) rotate(-68.71)"/><circle class="cls-4" cx="377.45" cy="536.15" r="9.22" transform="translate(-218.72 476.61) rotate(-45)"/><circle class="cls-4" cx="271.96" cy="582.22" r="9.22" transform="translate(-282.19 415.52) rotate(-45)"/><circle class="cls-4" cx="258.09" cy="516.37" r="9.22" transform="translate(-62.3 126.14) rotate(-13.34)"/><circle class="cls-4" cx="137.27" cy="458" r="9.22" transform="translate(-50.15 95.58) rotate(-13.07)"/><circle class="cls-4" cx="170.17" cy="418.25" r="9.22" transform="translate(-196.06 295.51) rotate(-45)"/><circle class="cls-4" cx="131.65" cy="375.83" r="9.22" transform="translate(-177.35 255.85) rotate(-45)"/><circle class="cls-4" cx="-6.24" cy="395.21" r="9.22" transform="translate(-231.44 164.03) rotate(-45)"/><circle class="cls-4" cx="51.29" cy="427.47" r="9.22" transform="translate(-47 75.9) rotate(-13.28)"/><circle class="cls-4" cx="189.76" cy="236.61" r="9.22" transform="translate(-51.81 373.38) rotate(-67.37)"/><circle class="cls-4" cx="204.82" cy="151.44" r="9.22" transform="translate(2.75 241.86) rotate(-45)"/><circle class="cls-4" cx="120.61" cy="236.05" r="9.22" transform="matrix(0.38, -0.92, 0.92, 0.38, -93.83, 309.21)"/><circle class="cls-4" cx="36.4" cy="287.23" r="9.22" transform="translate(-142.6 162.55) rotate(-45)"/><circle class="cls-4" cx="19.75" cy="249.87" r="9.22" transform="translate(-7.04 63.9) rotate(-13.28)"/><circle class="cls-4" cx="99.64" cy="160.65" r="9.22" transform="translate(-33.93 167.56) rotate(-44.18)"/><circle class="cls-4" cx="84.95" cy="79.2" r="9.22" transform="translate(33.6 74.88) rotate(-13.6)"/><circle class="cls-4" cx="28.97" cy="169.87" r="9.22" transform="translate(11.59 63.88) rotate(-13.28)"/><circle class="cls-4" cx="133.84" cy="79" r="9.22" transform="translate(32.49 167.64) rotate(-43.93)"/><circle class="cls-4" cx="-6.96" cy="169.87" r="9.22" transform="translate(-72.31 97.51) rotate(-45)"/><circle class="cls-4" cx="423.97" cy="407.59" r="9.22" transform="translate(-114.19 471.85) rotate(-45)"/><circle class="cls-4" cx="429.79" cy="373.04" r="9.22" transform="translate(-88.05 465.85) rotate(-45)"/><circle class="cls-4" cx="528.43" cy="410.5" r="9.22" transform="translate(-85.65 546.57) rotate(-45)"/><circle class="cls-4" cx="479.26" cy="413.3" r="9.22" transform="translate(-102.03 512.62) rotate(-45)"/><circle class="cls-4" cx="580.92" cy="440.82" r="9.22" transform="translate(-51.97 237.26) rotate(-16.62)"/><circle class="cls-4" cx="600.77" cy="361.56" r="9.22" transform="translate(-17.35 201.01) rotate(-13.34)"/><circle class="cls-4" cx="690.34" cy="278.84" r="9.22" transform="translate(217.15 861.38) rotate(-67.37)"/><circle class="cls-4" cx="720.2" cy="231.94" r="9.22" transform="matrix(0.97, -0.25, 0.25, 0.97, 14.77, 239.47)"/><circle class="cls-4" cx="741.03" cy="196.63" r="9.22" transform="translate(324.2 857.6) rotate(-67.37)"/><circle class="cls-4" cx="530.21" cy="330.45" r="9.22" transform="translate(-28.52 524.39) rotate(-45)"/><circle class="cls-4" cx="483.04" cy="296.44" r="9.22" transform="translate(-18.29 481.07) rotate(-45)"/><circle class="cls-4" cx="530.21" cy="206.45" r="9.22" transform="translate(59.16 488.07) rotate(-45)"/><circle class="cls-4" cx="612.25" cy="442.98" r="9.22"/><circle class="cls-4" cx="580.78" cy="327.25" r="9.22" transform="translate(-11.45 559.21) rotate(-45)"/><circle class="cls-4" cx="648.41" cy="440.82" r="9.22" transform="translate(-71.94 640.29) rotate(-45)"/><circle class="cls-4" cx="729.36" cy="459.57" r="9.22"/><circle class="cls-4" cx="377.93" cy="408.77" r="9.22" transform="translate(-128.51 439.65) rotate(-45)"/><circle class="cls-4" cx="340.97" cy="377.05" r="9.22" transform="matrix(0.38, -0.92, 0.92, 0.38, -88.41, 599.34)"/><circle class="cls-4" cx="382.38" cy="276.34" r="9.22" transform="matrix(0.38, -0.92, 0.92, 0.38, 30.01, 575.61)"/><circle class="cls-4" cx="285.96" cy="257.78" r="9.22" transform="translate(-48.67 330.39) rotate(-45)"/><circle class="cls-4" cx="400.98" cy="266.99" r="9.22" transform="translate(-0.61 151.53) rotate(-13.23)"/><circle class="cls-4" cx="435.53" cy="258.51" r="9.22" transform="translate(1.96 160.11) rotate(-13.34)"/><circle class="cls-4" cx="423.86" cy="178.25" r="9.22" transform="translate(20.3 154.41) rotate(-13.23)"/><circle class="cls-4" cx="553.19" cy="48.77" r="9.22" transform="translate(49.19 142.18) rotate(-9.24)"/><circle class="cls-4" cx="692.96" cy="105.15" r="9.22" transform="translate(178.46 573.48) rotate(-45)"/><circle class="cls-4" cx="460.03" cy="82.25" r="9.22" transform="translate(43.23 160.14) rotate(-13.23)"/><circle class="cls-4" cx="479.15" cy="153.36" r="9.22"/><polygon class="cls-4" points="472.19 458.64 439.71 491.12 255.81 491.12 114.58 632.35 117.84 635.6 257.71 495.73 441.61 495.73 475.44 461.9 472.19 458.64"/><polygon class="cls-4" points="284.52 594.36 153.52 594.36 153.52 598.96 282.61 598.96 320.18 636.53 323.43 633.28 284.52 594.36"/><polygon class="cls-4" points="185.49 509.05 100.18 594.36 8.14 594.36 8.14 598.96 102.08 598.96 188.74 512.31 185.49 509.05"/><polygon class="cls-4" points="490.63 573.91 487.38 577.16 545.13 634.92 545.13 801.41 549.74 801.41 549.74 633.02 490.63 573.91"/><polygon class="cls-4" points="387.12 573.86 383.86 577.11 482.08 675.32 547.43 675.32 547.43 670.72 483.98 670.72 387.12 573.86"/><polygon class="cls-4" points="333.32 1.21 328.72 1.21 328.72 228.78 430.6 330.65 433.85 327.4 333.32 226.87 333.32 1.21"/><polygon class="cls-4" points="351.93 1.21 347.33 1.21 347.33 219.43 449.2 321.3 452.46 318.05 351.93 217.52 351.93 1.21"/><polygon class="cls-4" points="386.48 2.55 381.88 2.55 381.88 210.94 483.75 312.82 487.01 309.56 386.48 209.04 386.48 2.55"/><polygon class="cls-4" points="601.41 99.83 515.28 185.95 384.18 185.95 384.18 190.55 517.19 190.55 604.66 103.08 601.41 99.83"/><rect class="cls-4" x="384.18" y="149.85" width="94.97" height="4.6"/><rect class="cls-4" x="384.18" y="132.63" width="125.69" height="4.6"/><polygon class="cls-4" points="237.98 287.67 57.11 468.53 57.11 596.66 61.71 596.66 61.71 470.44 241.23 290.92 237.98 287.67"/><polygon class="cls-4" points="168.83 287.11 8.14 447.8 8.14 454.31 172.09 290.36 168.83 287.11"/><polygon class="cls-4" points="147.86 211.71 96.67 262.9 8.14 262.9 8.14 267.5 98.58 267.5 151.12 214.96 147.86 211.71"/><polygon class="cls-4" points="147.86 72.44 76.46 143.85 76.46 222.55 81.06 222.55 81.06 145.75 151.12 75.69 147.86 72.44"/><rect class="cls-4" x="40.58" y="1.21" width="4.6" height="221.34"/><polygon class="cls-4" points="331.02 119.63 288.04 119.63 288.04 318.72 179.87 426.89 183.12 430.14 292.64 320.63 292.64 124.23 331.02 124.23 331.02 119.63"/><polygon class="cls-4" points="185.31 130.06 182.06 133.31 217.25 168.5 217.25 234.07 290.34 234.07 290.34 229.47 221.85 229.47 221.85 166.6 185.31 130.06"/><rect class="cls-4" x="98.83" y="480.15" width="4.6" height="116.51"/><polygon class="cls-4" points="221.64 388.37 218.39 391.63 290.51 463.75 427.78 463.75 427.78 459.15 292.42 459.15 221.64 388.37"/><polygon class="cls-4" points="85.9 338.28 8.14 416.05 8.14 422.55 89.15 341.54 85.9 338.28"/><polygon class="cls-4" points="203.46 1.21 198.85 1.21 198.85 102.41 252.36 155.91 252.36 204.12 256.96 204.12 256.96 154.01 203.46 100.5 203.46 1.21"/><polygon class="cls-4" points="241.75 368.27 238.49 371.52 299.01 432.03 390.82 432.03 390.82 427.43 300.91 427.43 241.75 368.27"/><polygon class="cls-4" points="694.1 574.11 596.14 672.07 596.14 801.41 600.74 801.41 600.74 673.97 697.35 577.36 694.1 574.11"/><polygon class="cls-4" points="738.84 574.11 640.88 672.07 640.88 801.41 645.48 801.41 645.48 673.97 742.1 577.36 738.84 574.11"/><polygon class="cls-4" points="629.14 491.87 588.27 532.74 280.68 532.74 218.39 595.03 221.64 598.29 282.59 537.34 590.17 537.34 632.39 495.12 629.14 491.87"/><polygon class="cls-4" points="499.17 380.83 337.02 380.83 337.02 429.73 341.62 429.73 341.62 385.43 497.26 385.43 576.64 464.81 579.9 461.56 499.17 380.83"/><polygon class="cls-4" points="808.14 191.62 695.96 303.8 695.96 493.5 700.56 493.5 700.56 305.7 808.11 198.15 808.14 191.62"/><polygon class="cls-4" points="808.11 140.89 648.32 300.68 648.32 414.25 652.92 414.25 652.92 302.58 808.14 147.37 808.11 140.89"/><polygon class="cls-4" points="808.11 113.2 695.96 113.2 695.96 175.5 577.76 293.7 577.76 383.13 582.36 383.13 582.36 295.6 700.56 177.4 700.56 117.8 808.11 117.8 808.11 113.2"/><rect class="cls-4" x="740.51" y="115.5" width="4.6" height="42.33"/><rect class="cls-4" x="609.95" y="262.46" width="4.6" height="179.92"/><polygon class="cls-4" points="652.92 1.21 648.32 1.21 648.32 156.88 530.58 274.62 530.58 349.13 535.18 349.13 535.18 276.52 652.92 158.78 652.92 1.21"/><polygon class="cls-4" points="731.69 457.94 728.44 461.19 770.91 503.67 770.91 607.42 686.74 691.59 686.74 801.41 691.34 801.41 691.34 693.5 775.51 609.33 775.51 501.76 731.69 457.94"/><polygon class="cls-4" points="808.11 624.21 744.11 688.21 747.36 691.47 808.11 630.72 808.11 624.21"/><polygon class="cls-4" points="742.48 329.62 737.88 329.62 737.88 382.48 786.08 430.68 786.08 554.12 771.59 568.61 774.84 571.86 790.68 556.02 790.68 428.78 742.48 380.58 742.48 329.62"/><rect class="cls-4" x="767.74" y="284.63" width="4.6" height="126.77"/><polygon class="cls-4" points="494.95 533.41 491.69 536.66 562.93 607.9 624.23 607.9 624.23 603.3 564.84 603.3 494.95 533.41"/><polygon class="cls-4" points="588.74 640.76 569.32 660.18 569.32 801.41 573.92 801.41 573.92 662.09 592 644.01 588.74 640.76"/><polygon class="cls-4" points="648.99 113.87 534.23 228.63 473.71 228.63 473.71 233.23 536.14 233.23 652.25 117.12 648.99 113.87"/><rect class="cls-4" x="8.14" y="702.52" width="164.14" height="4.6"/><rect class="cls-4" x="306.07" y="701.5" width="241.37" height="4.6"/><polygon class="cls-4" points="67.93 300.31 8.14 360.11 8.14 366.61 71.19 303.56 67.93 300.31"/><rect class="cls-4" x="319.82" y="243.16" width="4.6" height="102.26" transform="translate(-63.91 366.66) rotate(-45)"/><rect class="cls-4" x="395.9" y="445.53" width="97.67" height="4.6" transform="translate(-136.56 498.32) rotate(-45)"/><polygon class="cls-4" points="459.75 402.73 356.98 402.73 356.98 429.73 361.58 429.73 361.58 407.33 457.85 407.33 478.01 427.5 481.26 424.25 459.75 402.73"/><polygon class="cls-4" points="308.96 567.42 305.71 570.67 377.69 642.66 450.37 642.66 450.37 638.06 379.6 638.06 308.96 567.42"/><rect class="cls-4" x="405.19" y="461.97" width="4.6" height="139.19" transform="translate(-206.68 496.52) rotate(-45)"/><rect class="cls-4" x="643.18" y="532.74" width="130.03" height="4.6"/><rect class="cls-4" x="125.03" y="61.65" width="4.6" height="119.86" transform="translate(1.17 178.33) rotate(-45)"/><polygon class="cls-4" points="220.01 468.63 141.71 468.63 141.71 552.41 146.31 552.41 146.31 473.23 220.01 473.23 220.01 468.63"/><rect class="cls-4" x="408.96" y="87.76" width="30.98" height="30.98"/><rect class="cls-4" x="245.44" y="86.11" width="30.98" height="30.98"/><rect class="cls-4" x="161.68" y="232.58" width="30.98" height="30.98"/><rect class="cls-4" x="93.81" y="197.31" width="30.98" height="13.08"/><rect class="cls-4" x="93.81" y="176.95" width="30.98" height="13.08"/><rect class="cls-4" x="93.81" y="156.59" width="30.98" height="13.08"/><rect class="cls-4" x="294.6" y="396.95" width="30.98" height="13.08"/><rect class="cls-4" x="59.45" y="621.4" width="30.98" height="13.08" transform="translate(-503.15 755.57) rotate(-90)"/><rect class="cls-4" x="35.79" y="621.4" width="30.98" height="13.08" transform="translate(-526.81 731.91) rotate(-90)"/><rect class="cls-4" x="12.13" y="621.4" width="30.98" height="13.08" transform="translate(-550.47 708.25) rotate(-90)"/><rect class="cls-4" x="294.6" y="376.59" width="30.98" height="13.08"/><rect class="cls-4" x="294.6" y="356.23" width="30.98" height="13.08"/><rect class="cls-4" x="458.22" y="87.76" width="30.98" height="30.98"/><rect class="cls-4" x="418.93" y="199.11" width="30.98" height="30.98"/><rect class="cls-4" x="478.11" y="342.57" width="30.98" height="30.98"/><rect class="cls-4" x="555.35" y="488.23" width="30.98" height="30.98"/><rect class="cls-4" x="574.88" y="560.05" width="30.98" height="30.98"/><rect class="cls-4" x="542.1" y="290.49" width="30.98" height="30.98"/><rect class="cls-4" x="18.18" y="553.56" width="30.98" height="30.98"/><rect class="cls-4" x="259.72" y="619.41" width="30.98" height="30.98"/><rect class="cls-4" x="18.18" y="504.4" width="30.98" height="30.98"/><rect class="cls-4" x="208.62" y="419.45" width="30.98" height="30.98"/><rect class="cls-4" x="673.34" y="85.75" width="18.86" height="18.86"/><rect class="cls-4" x="703.89" y="85.75" width="18.86" height="18.86"/><rect class="cls-4" x="734.45" y="85.75" width="18.86" height="18.86"/><rect class="cls-4" x="579.2" y="202.06" width="18.86" height="18.86" transform="translate(72.71 530.85) rotate(-45)"/><rect class="cls-4" x="598.67" y="182.58" width="18.86" height="18.86" transform="translate(92.18 538.91) rotate(-45)"/><polygon class="cls-4" points="542 1.21 537.4 1.21 537.4 100.95 424.45 100.95 424.45 105.55 542 105.55 542 1.21"/><circle class="cls-4" cx="256.02" cy="46.45" r="13.02" transform="matrix(0.97, -0.25, 0.25, 0.97, 46.45, 119.28)"/><circle class="cls-4" cx="28.91" cy="46.45" r="13.02" transform="translate(39.95 60.57) rotate(-13.28)"/><polygon class="cls-4" points="230.21 1.21 225.61 1.21 225.61 101.43 305.87 101.43 305.87 96.83 230.21 96.83 230.21 1.21"/><rect class="cls-4" x="682.76" y="92.88" width="125.34" height="4.6"/><polygon class="cls-4" points="629.8 1.21 625.2 1.21 625.2 105.24 518.13 212.3 434.42 212.3 434.42 216.9 520.04 216.9 629.8 107.14 629.8 1.21"/><polygon class="cls-4" points="35.97 477.85 8.14 477.85 8.14 482.45 31.37 482.45 31.37 569.05 35.97 569.05 35.97 477.85"/><polygon class="cls-4" points="111.6 163.13 107 163.13 107 228.86 91.06 244.81 8.14 244.81 8.14 249.41 92.96 249.41 111.6 230.77 111.6 163.13"/><polygon class="cls-4" points="177.17 245.78 143.06 245.78 107.97 280.87 8.14 280.87 8.14 285.47 109.87 285.47 144.97 250.38 177.17 250.38 177.17 245.78"/><rect class="cls-4" x="307.79" y="122.47" width="4.6" height="281.03"/><polygon class="cls-4" points="311.72 247.69 308.47 250.94 417.89 360.36 493.61 360.36 493.61 355.76 419.79 355.76 311.72 247.69"/><circle class="cls-4" cx="494.6" cy="266.45" r="18.03"/><circle class="cls-4" cx="616.35" cy="401.29" r="18.03" transform="translate(61.47 872.57) rotate(-67.76)"/><circle class="cls-4" cx="647.08" cy="570.32" r="18.03"/><polygon class="cls-4" points="666.67 1.21 662.07 1.21 662.07 119.7 675.22 132.85 675.22 161.62 579.34 257.51 582.59 260.76 679.82 163.53 679.82 130.94 666.67 117.79 666.67 1.21"/><rect class="cls-4" x="555.29" y="305.99" width="4.6" height="136.99"/><polygon class="cls-4" points="790.68 115.5 786.08 115.5 786.08 139.18 628.33 296.93 628.33 379.93 632.93 379.93 632.93 298.83 790.68 141.08 790.68 115.5"/><circle class="cls-4" cx="84.95" cy="386.27" r="18.72" transform="translate(-193.52 218.44) rotate(-43.71)"/><rect class="cls-4" x="52.85" y="306.46" width="219.21" height="4.6" transform="translate(-120.9 257.99) rotate(-45)"/><polygon class="cls-4" points="290.34 252.19 236.06 252.19 41.98 446.26 45.24 449.52 237.96 256.79 290.34 256.79 290.34 252.19"/><polygon class="cls-4" points="277.51 608.21 181.06 608.21 156.12 633.15 159.37 636.41 182.97 612.81 272.91 612.81 272.91 634.9 277.51 634.9 277.51 608.21"/><polygon class="cls-4" points="249.78 432.64 224.11 432.64 224.11 437.24 247.87 437.24 305.69 495.07 308.95 491.81 249.78 432.64"/><polygon class="cls-4" points="400.04 509.9 270.62 509.9 185.49 595.03 188.74 598.29 272.52 514.5 400.04 514.5 400.04 509.9"/><rect class="cls-4" x="389.95" y="502.12" width="20.17" height="20.17"/><rect class="cls-4" x="676.59" y="547.75" width="20.17" height="20.17" transform="translate(645.41 -269.48) rotate(45)"/><rect class="cls-4" x="611.42" y="699.05" width="20.17" height="20.17"/><rect class="cls-4" x="325.56" y="547.75" width="20.17" height="20.17" transform="translate(-246.29 453.4) rotate(-45)"/><rect class="cls-4" x="656" y="568.34" width="20.17" height="20.17" transform="translate(653.94 -248.9) rotate(45)"/><rect class="cls-4" x="664.35" y="379.06" width="20.17" height="20.17"/><rect class="cls-4" x="709.03" y="360.63" width="20.17" height="20.17"/><rect class="cls-4" x="664.35" y="348.26" width="20.17" height="20.17"/><rect class="cls-4" x="359.28" y="502.12" width="20.17" height="20.17"/><rect class="cls-4" x="325.58" y="502.12" width="20.17" height="20.17"/><polygon class="cls-4" points="808.11 166.77 672.14 302.74 672.14 389.15 676.74 389.15 676.74 304.64 808.14 173.24 808.11 166.77"/><polygon class="cls-4" points="668.5 453.97 663.9 453.97 663.9 519.68 731.92 519.68 761.05 490.55 757.8 487.3 730.01 515.08 668.5 515.08 668.5 453.97"/><polygon class="cls-4" points="721.48 370.72 716.88 370.72 716.88 406.95 786.75 476.82 790.01 473.57 721.48 405.04 721.48 370.72"/><polygon class="cls-4" points="793.17 249.32 788.57 249.32 788.57 357.28 768.41 377.44 771.67 380.69 793.17 359.19 793.17 249.32"/><polygon class="cls-4" points="570.84 501.42 512.62 501.42 481.02 533.03 484.27 536.28 514.53 506.02 570.84 506.02 570.84 501.42"/><polygon class="cls-4" points="773.21 546.63 667.53 546.63 645.46 568.69 648.71 571.95 669.43 551.23 773.21 551.23 773.21 546.63"/><polygon class="cls-4" points="524.12 533.35 520.87 536.6 562.1 577.84 590.37 577.84 590.37 573.24 564 573.24 524.12 533.35"/><rect class="cls-4" x="8.14" y="678.32" width="116.66" height="4.6"/><rect class="cls-4" x="156.58" y="612.52" width="4.6" height="73.99" transform="translate(-362.9 355.26) rotate(-45)"/><circle class="cls-4" cx="132.71" cy="623.35" r="12.23" transform="translate(-44.43 80.5) rotate(-8.85)"/><polygon class="cls-4" points="734.89 608.89 664.89 678.89 664.89 801.41 669.49 801.41 669.49 680.79 738.14 612.14 734.89 608.89"/><polygon class="cls-4" points="719.02 115.5 714.42 115.5 714.42 184.97 636.85 262.54 640.1 265.79 719.02 186.87 719.02 115.5"/><polygon class="cls-4" points="721.2 548.92 716.6 548.92 716.6 574.68 619.21 672.07 619.21 709.14 623.81 709.14 623.81 673.97 721.2 576.58 721.2 548.92"/><polygon class="cls-4" points="355.23 535.04 350.63 535.04 350.63 578.91 383.86 612.14 387.12 608.89 355.23 577.01 355.23 535.04"/><polygon class="cls-4" points="428.92 587.21 425.66 590.46 496.37 661.17 547.43 661.17 547.43 656.57 498.28 656.57 428.92 587.21"/><rect class="cls-4" x="147.12" y="708.99" width="74.48" height="4.6" transform="translate(945.5 579.61) rotate(90)"/><rect class="cls-4" x="61.73" y="-16.53" width="74.48" height="4.6" transform="translate(134.59 -60.52) rotate(90)"/></g></g></g></svg>