<svg xmlns="http://www.w3.org/2000/svg" xmlns:xlink="http://www.w3.org/1999/xlink" viewBox="0 0 156.66 69.12"><defs><style>.cls-1{fill:url(#Degradado_sin_nombre_7);}.cls-2{fill-rule:evenodd;}.cls-3{fill:url(#Degradado_sin_nombre_7-2);}.cls-4{fill:url(#Degradado_sin_nombre_7-3);}.cls-5{fill:url(#Degradado_sin_nombre_7-4);}.cls-6{fill:url(#Degradado_sin_nombre_7-5);}.cls-7{fill:url(#Degradado_sin_nombre_7-6);}.cls-8{fill:url(#Degradado_sin_nombre_7-7);}.cls-9{fill:url(#Degradado_sin_nombre_12);}.cls-10{fill:url(#Degradado_sin_nombre_12-2);}.cls-11{fill:url(#Degradado_sin_nombre_12-3);}.cls-12{fill:url(#Degradado_sin_nombre_12-4);}.cls-13{fill:url(#Degradado_sin_nombre_12-5);}.cls-14,.cls-15,.cls-16,.cls-17{isolation:isolate;}.cls-14{font-size:9.06px;font-family:ArialMT, Arial;letter-spacing:0.1em;}.cls-14,.cls-16,.cls-17{fill:#1e1e1c;}.cls-16,.cls-17{font-size:12.64px;font-family:Cambria-Bold, Cambria;font-weight:700;}.cls-17{letter-spacing:-0.01em;}</style><radialGradient id="Degradado_sin_nombre_7" cx="14.18" cy="61.8" r="1.24" gradientTransform="matrix(1, 0, 0, -1, 0, 72.36)" gradientUnits="userSpaceOnUse"><stop offset="0" stop-color="#1d66a5"/><stop offset="1" stop-color="#39a8e0"/></radialGradient><radialGradient id="Degradado_sin_nombre_7-2" cx="20.59" cy="68.2" r="2.52" xlink:href="#Degradado_sin_nombre_7"/><radialGradient id="Degradado_sin_nombre_7-3" cx="34.85" cy="52.87" r="1.4" xlink:href="#Degradado_sin_nombre_7"/><radialGradient id="Degradado_sin_nombre_7-4" cx="29.52" cy="58.12" r="0.8" xlink:href="#Degradado_sin_nombre_7"/><radialGradient id="Degradado_sin_nombre_7-5" cx="6.51" cy="53.53" r="1.88" xlink:href="#Degradado_sin_nombre_7"/><radialGradient id="Degradado_sin_nombre_7-6" cx="39.26" cy="42.66" r="1.47" xlink:href="#Degradado_sin_nombre_7"/><radialGradient id="Degradado_sin_nombre_7-7" cx="2.41" cy="42.92" r="1.47" xlink:href="#Degradado_sin_nombre_7"/><linearGradient id="Degradado_sin_nombre_12" x1="10.96" y1="11.58" x2="11.4" y2="56.58" gradientTransform="matrix(1, 0, 0, -1, 0, 72.36)" gradientUnits="userSpaceOnUse"><stop offset="0" stop-color="#0e3d62"/><stop offset="1" stop-color="#39a8e0"/></linearGradient><linearGradient id="Degradado_sin_nombre_12-2" x1="21.1" y1="11.11" x2="21.68" y2="72.28" xlink:href="#Degradado_sin_nombre_12"/><linearGradient id="Degradado_sin_nombre_12-3" x1="29.6" y1="11.44" x2="30.03" y2="55.47" xlink:href="#Degradado_sin_nombre_12"/><linearGradient id="Degradado_sin_nombre_12-4" x1="8.12" y1="11.97" x2="8.44" y2="45.23" xlink:href="#Degradado_sin_nombre_12"/><linearGradient id="Degradado_sin_nombre_12-5" x1="90.69" y1="11.9" x2="91" y2="44.55" xlink:href="#Degradado_sin_nombre_12"/></defs><g id="Capa_2" data-name="Capa 2"><g id="Capa_1-2" data-name="Capa 1"><g id="Capa_2-2" data-name="Capa 2"><g id="PRINT"><circle class="cls-1" cx="14.18" cy="10.56" r="1.24"/><path class="cls-2" d="M118.52,61.88a43.76,43.76,0,0,0,0,5.61,2.14,2.14,0,0,1-.62.06,1.28,1.28,0,0,1,0-.39,1.91,1.91,0,0,1-1.5.46c-2.19-.24-1.81-4.68,1-4a1.72,1.72,0,0,1,.42.23c0-.67-.06-1.38,0-2A2.74,2.74,0,0,1,118.52,61.88Zm-.72,2.51a1.12,1.12,0,0,0-1-.3c-1.55.13-1.58,2.89,0,3a1.4,1.4,0,0,0,1-.32A23.62,23.62,0,0,0,117.8,64.39Z"/><path class="cls-2" d="M126.19,61.88a43.76,43.76,0,0,0,0,5.61,2.14,2.14,0,0,1-.62.06,1.28,1.28,0,0,1,0-.39,2,2,0,0,1-1.5.46c-2.19-.24-1.81-4.68,1-4a1.37,1.37,0,0,1,.43.23c0-.67-.06-1.38,0-2A2.66,2.66,0,0,1,126.19,61.88Zm-.72,2.51a1.12,1.12,0,0,0-1-.3c-1.55.13-1.58,2.89,0,3a1.4,1.4,0,0,0,1-.32A23.62,23.62,0,0,0,125.47,64.39Z"/><path class="cls-2" d="M150.2,62.17a1.24,1.24,0,0,0,.07.49,2.1,2.1,0,0,0-2.16,2v.07c.22-.06.31-.27.52-.36a1.63,1.63,0,0,1,2.21.62,1.88,1.88,0,0,1-1.7,2.7l-.15,0c-1-.11-1.56-1-1.57-2.18C147.39,63.54,148.25,62.26,150.2,62.17Zm-1.37,4.93c1.35.56,2-1.62.85-2.19a1.3,1.3,0,0,0-1.57.33c0,.86.14,1.61.72,1.86Z"/><path class="cls-2" d="M106.84,62.33V63c-.78,0-1.57-.06-2.39-.06a17.81,17.81,0,0,1,0,1.79,11.06,11.06,0,0,0,1.82,0v.59c-.63,0-1.18-.06-1.82,0v2.28h-.72V62.36Z"/><path class="cls-2" d="M142.5,63.28c0,1.38-.06,2.86,0,4.24h-.69c.05-1.08.05-2.17,0-3.26-.33.11-.58.31-.91.42a1.5,1.5,0,0,0-.19-.32c.36-.34.94-.67,1.33-1A.5.5,0,0,1,142.5,63.28Z"/><path class="cls-2" d="M144,69.12c-.06-.13-.06-.33-.13-.46a2.38,2.38,0,0,0,2.32-2.45v-.06a1.81,1.81,0,0,1-1,.55,1.53,1.53,0,0,1-1.8-1.22,1.14,1.14,0,0,1,0-.37,1.67,1.67,0,0,1,1.47-1.83c1.35-.16,2.08.87,2.08,2.28C146.91,67.66,146.09,69,144,69.12Zm.72-3c.51.23,1.35.07,1.47-.49a2,2,0,0,0-.52-1.56,1,1,0,0,0-.76-.2c-1.13.1-1,1.83-.18,2.21Z"/><path class="cls-2" d="M152.19,67c.76,0,1.5,0,2.22-.07a3.81,3.81,0,0,1-.07.59h-2.9a4.86,4.86,0,0,0,.07-.55c.63-.56,2-1.09,1.89-2.35-.06-.77-1-.89-1.89-.72,0-.21.06-.35.06-.56,1.28-.25,2.51.11,2.55,1.15C154.17,65.86,152.89,66.31,152.19,67Z"/><path class="cls-2" d="M135.06,65.66c-.95,0-1.8,0-2.74,0,0,1.28,1.47,1.61,2.68,1.21a3.83,3.83,0,0,1-.1.59,3,3,0,0,1-2.61-.33c-1.15-1-.63-3.4.94-3.59C134.55,63.42,135.2,64.23,135.06,65.66Zm-2.71-.42c.66-.06,1.42,0,2.06-.07C134.56,63.61,132.21,63.86,132.35,65.24Z"/><path class="cls-2" d="M114.47,67.52h-.75c-.06-.87.38-2.52-.1-3.1s-1.39-.24-1.79.13v3h-.72A14.28,14.28,0,0,0,111,63.8a2.48,2.48,0,0,1,.72-.13,2.05,2.05,0,0,1,.06.49c.9-.81,2.68-.77,2.71.78C114.49,65.73,114.39,66.61,114.47,67.52Z"/><path class="cls-2" d="M122.17,67.52a2.36,2.36,0,0,1-.65,0c0-.15-.06-.2,0-.36-.76.65-2.77.66-2.48-.91.16-.9,1.28-1.06,2.41-1.08.33-1.3-1.4-1.1-2.25-.88a5.17,5.17,0,0,1,.07-.55c.87-.19,2.15-.36,2.64.26S121.77,66.44,122.17,67.52Zm-2.44-.69c.29.46,1.41.19,1.73-.09V65.66C120.54,65.52,119.21,66,119.73,66.83Z"/><path class="cls-2" d="M129.87,67.52a2.36,2.36,0,0,1-.65,0c0-.15-.06-.2,0-.36-.76.65-2.77.66-2.48-.91.16-.9,1.28-1.06,2.41-1.08.33-1.3-1.4-1.1-2.25-.88a5.17,5.17,0,0,1,.07-.55c.87-.19,2.15-.36,2.64.26S129.47,66.44,129.87,67.52Zm-2.44-.69c.29.46,1.41.19,1.73-.09V65.66C128.24,65.52,126.91,66,127.43,66.83Z"/><path class="cls-2" d="M139,67.52h-.75c-.06-.87.37-2.52-.1-3.1s-1.4-.24-1.8.13v3h-.71a14.28,14.28,0,0,0-.13-3.75,2.87,2.87,0,0,1,.71-.13,1.66,1.66,0,0,1,.07.49c.89-.81,2.68-.77,2.71.78A22.18,22.18,0,0,0,139,67.52Z"/><path class="cls-2" d="M107.88,63.7c0,1-.29,2.31.13,3,.31.53,1.26.32,1.73,0v-3a4.33,4.33,0,0,1,.72,0c0,1.28,0,2.64.06,3.82a1.69,1.69,0,0,1-.55,0c-.22-.06-.1-.23-.13-.36-.63.52-2.1.68-2.48-.13a3.58,3.58,0,0,1-.13-1.66,10.22,10.22,0,0,1,0-1.66A3.53,3.53,0,0,1,107.88,63.7Z"/><path class="cls-3" d="M23.11,4.16a2.52,2.52,0,1,1-2.52-2.52,2.52,2.52,0,0,1,2.52,2.52Z"/><circle class="cls-4" cx="34.85" cy="19.49" r="1.4"/><path class="cls-5" d="M30.32,14.24a.8.8,0,1,1-.8-.8h0A.8.8,0,0,1,30.32,14.24Z"/><path class="cls-6" d="M8.39,18.83A1.88,1.88,0,1,1,6.51,17h0A1.88,1.88,0,0,1,8.39,18.83Z"/><circle class="cls-7" cx="39.26" cy="29.7" r="1.47"/><circle class="cls-8" cx="2.41" cy="29.44" r="1.47"/><path class="cls-9" d="M18.57,30l-6.11-5.7L8.87,21h0a3.16,3.16,0,1,0-2.38,1,3.1,3.1,0,0,0,1.67-.49l.08.09,6.27,5.86c1.16,1.1,2.33,2.2,3.5,3.28V60.4a.45.45,0,1,0,.9,0V30.47A.42.42,0,0,0,18.57,30ZM6.49,21.41A2.55,2.55,0,1,1,9,18.81v.05A2.54,2.54,0,0,1,6.49,21.41Z"/><path class="cls-10" d="M28.72,15.67a1.46,1.46,0,0,0,.79.2,1.62,1.62,0,1,0-1.62-1.61,1.61,1.61,0,0,0,.32,1l-6.34,6.19-.22.21v-13a.92.92,0,0,0-.11-.43,4.14,4.14,0,1,0-1.6,0,.85.85,0,0,0-.09.38V17l-4-4.84a2.19,2.19,0,0,0,.65-1.57,2.25,2.25,0,1,0-2.25,2.25,2.14,2.14,0,0,0,1.07-.28l0,.08L19.79,18a.28.28,0,0,0,.1.09v42.3a.9.9,0,1,0,1.8,0V22.57l6.25-6.11ZM29.51,13a1.2,1.2,0,1,1-1.2,1.2h0A1.19,1.19,0,0,1,29.5,13ZM12.38,10.58a1.83,1.83,0,1,1,1.83,1.83h0A1.83,1.83,0,0,1,12.38,10.58ZM20.63,7.7a3.54,3.54,0,1,1,3.54-3.54h0A3.54,3.54,0,0,1,20.63,7.7Z"/><path class="cls-11" d="M33.34,21.61v-.06a2.49,2.49,0,1,0-.63-.62l-.06.05-6.26,5.86Q24.73,28.46,23,30a.43.43,0,0,0-.34.42v30a.45.45,0,1,0,.9,0V30.75L29.74,25Zm1.5-4.22a2.07,2.07,0,1,1-2.06,2.08h0A2.07,2.07,0,0,1,34.84,17.39Z"/><path class="cls-12" d="M16.37,34.77h-.06L8.1,31.66l-3.5-1.3a2.34,2.34,0,0,0,.18-.91,2.39,2.39,0,1,0-.38,1.3h0l8.21,3.06,3.51,1.32V54.28l-5.44,5.14L2,59.5h-.4l.2-.2c.11-.1-.05-.26-.16-.16l-.51.49a.11.11,0,0,0,0,.16h0l.48.5c.1.1.25-.06.15-.16L1.58,60l8.6-.09h.49a.21.21,0,0,0,.24,0H11l5.48-5.18a.19.19,0,0,0,.14-.2h0V35a.21.21,0,0,0-.15-.25Zm-14-3.28a2,2,0,1,1,2-2,2,2,0,0,1-2,2Z"/><path class="cls-13" d="M156.55,58.47,156,58c-.11-.1-.27,0-.16.15l.22.21h-6l-15.89.14-22.14.18-24.81.21-23.94.21-19.49.16-11.48.1H30.82l-5.43-5.07V35.15l8.16-3,3.52-1.32a2.39,2.39,0,0,0,4.54-1.07,2.4,2.4,0,1,0-4.8,0,2.37,2.37,0,0,0,.09.65l-8.12,3-3.56,1.32h-.06A.22.22,0,0,0,25,35,.07.07,0,0,0,25,35V54.4a.22.22,0,0,0,.14.2l5.46,5.17a.18.18,0,0,0,.09.08.2.2,0,0,0,.23,0h5.95l15.9-.13,22.13-.19,24.82-.21,23.93-.2L143.13,59l11.49-.1h1.51L156,59c-.1.1.06.26.16.16l.47-.5a.1.1,0,0,0,.05-.14A.11.11,0,0,0,156.55,58.47ZM39.21,27.67a2,2,0,1,1-2,2A2,2,0,0,1,39.21,27.67Z"/><text class="cls-14" transform="translate(33.49 57) scale(1.07 1)">IEEE - UD</text><g class="cls-15"><text class="cls-16" transform="translate(33.14 46.97)"><tspan xml:space="preserve">RAMA  E</tspan></text><text class="cls-17" transform="translate(81.56 46.97)">S</text><text class="cls-16" transform="translate(87.9 46.97)">TUDIANTIL</text></g></g></g></g></g></svg>