<?xml version="1.0" encoding="utf-8"?>
<!-- Generator: Adobe Illustrator 25.0.1, SVG Export Plug-In . SVG Version: 6.00 Build 0)  -->
<svg version="1.1" id="Capa_1" xmlns="http://www.w3.org/2000/svg" xmlns:xlink="http://www.w3.org/1999/xlink" x="0px" y="0px"
	 viewBox="0 0 68.6 64" style="enable-background:new 0 0 68.6 64;" xml:space="preserve">
<style type="text/css">
	.st0{fill:#FFFFFF;}
	.st1{fill:#19885F;}
	.st2{fill:#11100D;}
	.st3{fill:#70B42D;}
	.st4{fill:#1E1E1C;}
	.st5{font-family:'ArialMT';}
	.st6{font-size:3.02px;}
	.st7{stroke:#1D1E1C;stroke-width:0.34;stroke-miterlimit:10;}
</style>
<g id="Capa_1-2">
	<path class="st0" d="M34.9,3.5c-0.2,0-0.4,0-0.6,0.1c-0.1-0.1-0.2,0-0.3,0c-0.7,0-1.5,0-2.2,0.1c-0.5,0-0.9,0.1-1.4,0.2
		c-0.2,0-0.4,0-0.6,0.1C29,4,28.2,4.1,27.6,4.2c-0.4,0.1-0.8,0.2-1.2,0.3c-0.5,0.1-0.9,0.2-1.4,0.3c-1.3,0.3-2.6,0.7-3.8,1.2h-0.1
		c-0.4,0.2-0.8,0.3-1.2,0.5s-0.7,0.3-1,0.5c-2.2,1-4.2,2.2-6.1,3.7c-0.6,0.5-1.4,1-1.9,1.6C4.7,17.6,1.1,25.4,1,33.7
		C1,45.6,8.7,56,20,60.9c0.4,0.2,0.8,0.4,1.2,0.5c1.2,0.5,2.5,0.9,3.8,1.3c0.4,0.2,0.9,0.3,1.4,0.3c1.3,0.4,2.6,0.7,3.9,0.8
		c0.4,0.1,0.9,0.1,1.4,0.1c0.8,0.1,1.7,0.2,2.5,0.1c0.2,0,0.4,0,0.7,0c0.3,0,0.5,0,0.8,0c0.8,0,1.6,0,2.4-0.1l1.4-0.2
		c1.3-0.1,2.6-0.3,3.8-0.7c0.5-0.1,1-0.2,1.4-0.3c1.3-0.3,2.5-0.8,3.7-1.3c0.4-0.1,0.8-0.3,1.2-0.5c11.2-4.9,19-15.2,19-27.1
		c-0.1-8.2-3.7-16.1-9.9-21.5c-0.6-0.5-1.3-1-1.9-1.6c-1.8-1.4-3.8-2.6-5.9-3.6C50.4,7,50,6.8,49.6,6.7c-0.3-0.2-0.7-0.4-1.1-0.5
		c-0.1,0-0.1,0-0.1,0C47.2,5.7,46,5.3,44.8,5c-0.5-0.2-0.9-0.3-1.4-0.3c-0.4-0.1-0.7-0.2-1.1-0.3C41.6,4.2,40.9,4,40.1,4
		c-0.2,0-0.4-0.1-0.6-0.1c-0.5-0.1-0.9-0.2-1.4-0.2c-0.6-0.1-1.3-0.1-2-0.1c-0.1,0-0.3-0.1-0.5,0C35.4,3.5,35.1,3.5,34.9,3.5z"/>
	<path class="st1" d="M29.9,61c-17.3-2.6-29-17.2-26.1-32.5c2.7-13.9,16.5-23.8,32-23.7c0.5,1.2,1.7,2.1,3,2.2c2,0.4,4-0.9,4.5-2.9
		c0.3-1.9-1.1-3.7-3-4c-0.1,0-0.1,0-0.2,0c-1.6-0.3-3.2,0.4-4.1,1.8C18.9,1.7,3.6,12.6,0.6,28c-3.2,17,9.6,33,28.7,35.8L29.9,61z"/>
	<path class="st2" d="M29.5,63.9h-0.1c-4.6-0.7-9.1-2.2-13.1-4.5c-3.8-2.1-7.1-4.9-9.8-8.3C1.1,44.7-1.1,36.2,0.5,28
		c1.6-7.6,5.9-14.3,12.2-18.8c6.6-4.8,14.6-7.4,22.8-7.3h0.4C36.7,0.7,38,0,39.5,0c0.2,0,0.4,0,0.7,0.1c1,0.1,2,0.7,2.7,1.5
		c0.6,0.7,0.9,1.7,0.7,2.7c-0.5,1.8-2.1,3.1-4,3c-0.2,0-0.4,0-0.7,0c-1.4-0.2-2.5-1-3.1-2.3h-0.2c-15.7,0-29,9.9-31.6,23.6
		c-1.4,7.4,0.6,15,5.3,20.8c5.2,6.3,12.6,10.4,20.7,11.5H30L29.5,63.9z M35.5,2C18.2,2,3.6,13,0.7,28c-1.5,8.1,0.6,16.5,5.9,23
		c5.7,6.9,13.8,11.5,22.7,12.7l0.5-2.6c-8.1-1.1-15.5-5.2-20.7-11.6c-4.8-5.9-6.8-13.6-5.4-21c1.4-6.9,5.4-13,11.1-17.1
		c6-4.4,13.3-6.7,20.7-6.7h0.3v0.1c0.5,1.2,1.7,2,3,2.2C39,7,39.2,7,39.4,7c1.8,0.1,3.4-1.1,3.8-2.8c0.2-0.9-0.1-1.8-0.6-2.5
		c-0.6-0.8-1.5-1.3-2.5-1.4c-0.2,0-0.4,0-0.6,0c-1.3,0-2.6,0.6-3.4,1.8l0,0L35.5,2L35.5,2z"/>
	<path class="st3" d="M13.4,17.1c-10,10.7-8.3,26.6,3.7,35.4l2.1-2.2C8.5,42.5,7,28.4,15.9,18.9c7.8-8.4,21-10.4,31.4-5.6
		c-0.2,1.9,1.2,3.7,3.1,3.9c0,0,0.1,0,0.1,0c2,0.4,4-0.9,4.5-2.9c0.3-1.9-1.1-3.7-3-4c-0.1,0-0.1,0-0.2,0c-1-0.1-2,0.1-2.8,0.5
		C37.3,5.3,22.2,7.6,13.4,17.1z"/>
	<path class="st2" d="M17.1,52.7L17,52.6c-5.7-4-9.3-10.1-10.2-17C6.2,28.8,8.5,22,13.3,17.1c5.8-6,13.8-9.4,22.2-9.2
		c4.7,0,9.3,1,13.6,3c0.9-0.5,1.8-0.7,2.8-0.5c1,0.1,2,0.7,2.6,1.5c0.6,0.7,0.9,1.7,0.7,2.7c-0.5,1.8-2.1,3.1-4,3
		c-0.2,0-0.4,0-0.7,0c-2-0.2-3.5-2-3.3-4c0,0,0,0,0,0c-3.7-1.7-7.7-2.6-11.7-2.6C28.1,10.7,21.1,13.7,16,19
		c-4.2,4.3-6.3,10.3-5.6,16.3c0.7,6,3.9,11.5,8.9,15l0.1,0.1L17.1,52.7z M35.5,8c-8.3-0.1-16.2,3.2-22,9.2
		c-4.7,4.9-7.1,11.6-6.4,18.4c0.8,6.8,4.4,12.9,10,16.8l1.9-2c-5-3.5-8.2-9-8.9-15c-0.6-6.1,1.5-12.1,5.7-16.4
		c5.1-5.3,12.3-8.3,19.7-8.2c4.1,0,8.2,0.9,11.9,2.6h0.1v0.1c-0.2,1.9,1.2,3.6,3.1,3.8c0,0,0,0,0.1,0c0.2,0,0.4,0,0.6,0
		c1.8,0.1,3.4-1.1,3.8-2.9c0.2-0.9-0.1-1.8-0.7-2.5c-0.6-0.8-1.5-1.3-2.5-1.4c-0.9-0.1-1.9,0-2.7,0.5l0,0h-0.1C44.8,9,40.2,8,35.5,8
		z"/>
	<path class="st1" d="M27.8,15.1c-11.2,3.7-17,14.8-12.9,24.7l3-1c-3.5-8.4,1.4-17.9,11-21.1c8.1-2.7,16.9-0.1,21.6,5.9
		c-0.3,0.4-0.4,0.8-0.5,1.3c-0.3,1.9,1.1,3.7,3,4c0.1,0,0.1,0,0.2,0c2,0.4,4-0.9,4.5-2.9c0.3-1.9-1.1-3.7-3-4c-0.1,0-0.1,0-0.2,0
		c-0.4-0.1-0.9-0.1-1.3,0C47.7,15,37.3,11.9,27.8,15.1z"/>
	<path class="st2" d="M14.8,39.9L14.8,39.9c-4.1-10.1,1.7-21.2,12.9-25c2.5-0.8,5.1-1.3,7.7-1.2c6.9-0.1,13.4,2.9,17.8,8.2
		c0.4-0.1,0.8-0.1,1.3,0c1,0.1,2,0.7,2.7,1.5c0.6,0.7,0.8,1.7,0.6,2.6c-0.5,1.8-2.1,3.1-4,3c-0.2,0-0.5,0-0.7,0
		c-1-0.1-2-0.7-2.7-1.5c-0.9-1.1-1-2.7-0.2-3.9c-3.7-4.4-9.2-6.9-15-6.9c-2.2,0-4.4,0.3-6.5,1C19.5,21,14.6,30.4,18,38.8v0.1
		L14.8,39.9z M35.4,13.9c-2.6,0-5.2,0.4-7.6,1.2C16.7,18.9,11,29.8,15,39.7l2.8-0.9c-3.4-8.5,1.5-17.9,11.1-21.1
		c2.1-0.7,4.3-1.1,6.6-1.1c5.9-0.1,11.5,2.5,15.2,7v0.1v0.1c-0.8,1.1-0.8,2.7,0.1,3.7c0.6,0.8,1.5,1.3,2.5,1.4c0.2,0,0.4,0,0.6,0
		c1.8,0.1,3.3-1.1,3.8-2.8c0.2-0.9-0.1-1.8-0.7-2.5c-0.6-0.8-1.5-1.3-2.5-1.4c-0.4-0.1-0.9-0.1-1.3,0h-0.1v0
		C48.8,16.8,42.3,13.8,35.4,13.9z"/>
	<text transform="matrix(1.12 0 0 1 14.8901 44.4302)" class="st4 st5 st6">CI</text>
	<text transform="matrix(1.12 0 0 1 17.6562 44.4302)" class="st4 st5 st6">R</text>
	<text transform="matrix(1.12 0 0 1 19.4819 44.4302)" class="st4 st5 st6">CUI</text>
	<text transform="matrix(1.12 0 0 1 24.4434 44.4302)" class="st4 st5 st6">T</text>
	<text transform="matrix(1.12 0 0 1 26.1011 44.4302)" class="st4 st5 st6">S &amp; S</text>
	<text transform="matrix(1.12 0 0 1 34.6914 44.4302)" class="st4 st5 st6">YSTEMS - UD</text>
	<path class="st7" d="M30.5,31.6h-6.5v6h6.5v-2.1l1.6,0.3v1c0.1,0.6-0.1,1.1-0.5,1.6c-0.5,0.3-1.1,0.5-1.7,0.4h-5.2
		c-0.6,0.1-1.2-0.1-1.7-0.4c-0.4-0.4-0.5-1-0.5-1.6v-4.4c-0.1-0.6,0.1-1.1,0.5-1.5c0.5-0.3,1.1-0.5,1.7-0.4h5.2
		c0.6-0.1,1.2,0.1,1.7,0.4c0.4,0.4,0.5,1,0.4,1.6v0.8l-1.6,0.3L30.5,31.6z"/>
	<path class="st7" d="M34.4,38.8l5.1-8.3h1.7l5.2,8.3h-1.7l-1.2-2h-6.3l-1.2,2H34.4z M37.7,35.7h5l-2.5-4.3L37.7,35.7z"/>
	<path class="st7" d="M57.2,31.6h-6.6v2.3h5.9c0.6-0.1,1.2,0.1,1.7,0.4c0.4,0.4,0.5,1,0.5,1.5v0.9c0.1,0.6-0.1,1.1-0.5,1.6
		c-0.5,0.3-1.1,0.5-1.7,0.4h-5.4c-0.6,0.1-1.2-0.1-1.7-0.4c-0.4-0.4-0.5-1-0.5-1.6v-0.2l1.5-0.3v1.3h6.9v-2.5h-5.8
		c-0.6,0.1-1.2-0.1-1.7-0.4c-0.4-0.4-0.5-1-0.5-1.5v-0.7c-0.1-0.6,0.1-1.1,0.5-1.5c0.5-0.3,1.1-0.5,1.7-0.4h5
		c0.6-0.1,1.2,0.1,1.7,0.4c0.4,0.4,0.5,0.9,0.5,1.4v0.2l-1.3,0.3L57.2,31.6z"/>
</g>
</svg>
