<svg xmlns="http://www.w3.org/2000/svg" viewBox="0 0 68.62 64"><defs><style>.cls-1{fill:#fff;}.cls-2{fill:#19885f;}.cls-3{fill:#11100d;}.cls-4{fill:#70b42d;}.cls-5{font-size:3.02px;fill:#1e1e1c;font-family:BankGothicBT-Light, BankGothicBT Light;font-weight:300;}.cls-6{letter-spacing:0em;}.cls-7{letter-spacing:-0.01em;}.cls-8{letter-spacing:-0.01em;}.cls-9{stroke:#1d1e1c;stroke-miterlimit:10;stroke-width:0.34px;}</style></defs><g id="Capa_2" data-name="Capa 2"><g id="Capa_1-2" data-name="Capa 1"><path class="cls-1" d="M34.87,3.49a2.11,2.11,0,0,0-.64.06c-.13-.06-.19,0-.32,0-.71,0-1.48.05-2.19.11a5.82,5.82,0,0,0-1.36.17,1.85,1.85,0,0,0-.57.06c-.78.11-1.55.23-2.19.34a7.87,7.87,0,0,0-1.16.29,11,11,0,0,0-1.36.29c-1.29.34-2.57.74-3.8,1.2h-.06c-.39.23-.78.34-1.16.52s-.71.28-1,.46a32.63,32.63,0,0,0-6.13,3.67c-.64.52-1.35,1-1.93,1.56A28.87,28.87,0,0,0,1,33.7C1,45.63,8.7,56,20,60.87a6.47,6.47,0,0,0,1.16.52A26,26,0,0,0,25,62.66a3.64,3.64,0,0,0,1.35.29,18.09,18.09,0,0,0,3.93.76,10.26,10.26,0,0,0,1.35.12,13.24,13.24,0,0,0,2.51.12,2.81,2.81,0,0,0,.65,0,4,4,0,0,0,.77,0A12.36,12.36,0,0,0,38,63.84l1.41-.18A21.5,21.5,0,0,0,43.26,63a11.53,11.53,0,0,0,1.42-.29,30.22,30.22,0,0,0,3.68-1.26,6,6,0,0,0,1.22-.52c11.21-4.88,19-15.19,19-27.11a28.72,28.72,0,0,0-9.94-21.46c-.58-.51-1.29-1-1.93-1.61a31.55,31.55,0,0,0-5.92-3.59,9.09,9.09,0,0,0-1.16-.51,4.28,4.28,0,0,0-1.09-.47c-.06,0-.06,0-.12,0a33.58,33.58,0,0,0-3.67-1.22,6,6,0,0,0-1.42-.35,6.66,6.66,0,0,0-1.09-.29C41.63,4.19,40.92,4,40.09,4a1.94,1.94,0,0,0-.58-.06,11.39,11.39,0,0,0-1.42-.23c-.64-.06-1.29-.12-2-.12-.13,0-.32-.06-.45,0A3.69,3.69,0,0,0,34.87,3.49Z"/><path class="cls-2" d="M29.89,61C12.56,58.4.85,43.85,3.8,28.5c2.67-13.93,16.46-23.82,32-23.71a3.78,3.78,0,0,0,3,2.24,3.94,3.94,0,0,0,4.55-2.87,3.54,3.54,0,0,0-3.23-4A4.12,4.12,0,0,0,36,1.94C18.86,1.74,3.57,12.65.62,28-2.62,45,10.26,61,29.35,63.77Z"/><path class="cls-3" d="M29.45,63.89h-.12a37.92,37.92,0,0,1-13.11-4.45,33.66,33.66,0,0,1-9.81-8.31A28.17,28.17,0,0,1,.5,28,30.81,30.81,0,0,1,12.74,9.19,38.48,38.48,0,0,1,35.51,1.84h.41A4.19,4.19,0,0,1,39.46,0a4.62,4.62,0,0,1,.65.05,4.07,4.07,0,0,1,2.65,1.46,3.24,3.24,0,0,1,.68,2.66,4,4,0,0,1-4,3,4.87,4.87,0,0,1-.66,0A4,4,0,0,1,35.67,4.9h-.18c-15.68,0-29,9.93-31.58,23.61A25.41,25.41,0,0,0,9.24,49.35,32.13,32.13,0,0,0,29.91,60.86H30ZM35.51,2.05C18.25,2.05,3.62,13,.73,28.05A28,28,0,0,0,6.6,51,35.35,35.35,0,0,0,29.26,63.65l.5-2.6A32.38,32.38,0,0,1,9.05,49.47a25.62,25.62,0,0,1-5.37-21A28,28,0,0,1,14.8,11.37,34.94,34.94,0,0,1,35.49,4.69h.34l0,.07A3.73,3.73,0,0,0,38.8,6.93a4.21,4.21,0,0,0,.62.05,3.73,3.73,0,0,0,3.79-2.84,3.06,3.06,0,0,0-.64-2.51A3.89,3.89,0,0,0,40.08.25a4.4,4.4,0,0,0-.62,0A3.93,3.93,0,0,0,36.09,2l0,0h-.55Z"/><path class="cls-4" d="M13.4,17.11c-10,10.73-8.33,26.59,3.7,35.4l2.06-2.21C8.49,42.49,7,28.43,15.88,18.92c7.8-8.37,21-10.45,31.43-5.55a3.54,3.54,0,0,0,3.23,3.94,4,4,0,0,0,4.55-2.88,3.54,3.54,0,0,0-3.23-4,4.43,4.43,0,0,0-2.8.54C37.32,5.3,22.25,7.61,13.4,17.11Z"/><path class="cls-3" d="M17.12,52.65,17,52.59a24.24,24.24,0,0,1-10.16-17,23.32,23.32,0,0,1,6.44-18.53A30.2,30.2,0,0,1,35.48,7.81a31.49,31.49,0,0,1,13.58,3,4.46,4.46,0,0,1,2.82-.52,4.11,4.11,0,0,1,2.64,1.46,3.25,3.25,0,0,1,.68,2.67,4,4,0,0,1-4,3,4.89,4.89,0,0,1-.66-.05,3.68,3.68,0,0,1-3.34-4,27.74,27.74,0,0,0-11.72-2.57A26.59,26.59,0,0,0,16,19a20.45,20.45,0,0,0-5.65,16.28,21.27,21.27,0,0,0,8.91,14.95l.09.07ZM35.48,8a30,30,0,0,0-22,9.17A23.11,23.11,0,0,0,7.11,35.56a24,24,0,0,0,10,16.8l1.91-2a21.5,21.5,0,0,1-8.91-15,20.73,20.73,0,0,1,5.71-16.44,26.82,26.82,0,0,1,19.67-8.19,28,28,0,0,1,11.9,2.62l.07,0v.07a3.46,3.46,0,0,0,3.14,3.82,4.44,4.44,0,0,0,.62.05A3.75,3.75,0,0,0,55,14.41a3.08,3.08,0,0,0-.65-2.51,3.81,3.81,0,0,0-2.49-1.37,4.23,4.23,0,0,0-2.72.52l0,0-.06,0A31.27,31.27,0,0,0,35.48,8Z"/><path class="cls-2" d="M27.76,15.07C16.54,18.8,10.79,29.89,14.9,39.8l3-1c-3.49-8.44,1.41-17.87,11-21.06C37,15,45.81,17.67,50.53,23.62A3.2,3.2,0,0,0,50,24.89a3.53,3.53,0,0,0,3.22,4A3.93,3.93,0,0,0,57.76,26a3.54,3.54,0,0,0-3.23-4,4.78,4.78,0,0,0-1.31,0C47.7,15,37.27,11.89,27.76,15.07Z"/><path class="cls-3" d="M14.83,39.93l0-.1c-4.13-10,1.67-21.11,12.93-24.86a24.27,24.27,0,0,1,7.71-1.25,22.76,22.76,0,0,1,17.85,8.2,4.17,4.17,0,0,1,1.27,0,4.07,4.07,0,0,1,2.65,1.46A3.25,3.25,0,0,1,57.88,26a4,4,0,0,1-4,3A4.77,4.77,0,0,1,53.2,29a4.12,4.12,0,0,1-2.65-1.47,3.24,3.24,0,0,1-.16-3.9,19.18,19.18,0,0,0-15-6.85,20.42,20.42,0,0,0-6.49,1C19.45,21,14.56,30.37,18,38.75l0,.1Zm20.6-26a24,24,0,0,0-7.63,1.23C16.69,18.86,11,29.84,15,39.66l2.81-.93c-3.44-8.46,1.5-17.91,11.06-21.1a20.92,20.92,0,0,1,6.57-1.06,19.41,19.41,0,0,1,15.22,7l0,.06,0,.06a3.05,3.05,0,0,0,.11,3.73,3.89,3.89,0,0,0,2.49,1.38,4.46,4.46,0,0,0,.63.05A3.74,3.74,0,0,0,57.65,26,3.06,3.06,0,0,0,57,23.49a3.89,3.89,0,0,0-2.49-1.38,4.6,4.6,0,0,0-1.28,0h-.07l0-.05A22.51,22.51,0,0,0,35.43,13.93Z"/><text class="cls-5" transform="translate(14.89 44.43) scale(1.12 1)">CI<tspan class="cls-6" x="2.47" y="0">R</tspan><tspan x="4.1" y="0">CUI</tspan><tspan class="cls-7" x="8.53" y="0">T</tspan><tspan x="10.01" y="0">S &amp; S</tspan><tspan class="cls-8" x="16.09" y="0">Y</tspan><tspan x="17.68" y="0">STEMS - UD</tspan></text><path class="cls-9" d="M30.54,31.59H24.09v6h6.45V35.53l1.56.3v1a2.07,2.07,0,0,1-.45,1.56,2.64,2.64,0,0,1-1.72.41H24.72A2.66,2.66,0,0,1,23,38.37a2.06,2.06,0,0,1-.46-1.56V32.42A2,2,0,0,1,23,30.87a2.59,2.59,0,0,1,1.72-.42h5.21a2.64,2.64,0,0,1,1.72.41,2.11,2.11,0,0,1,.45,1.56v.79l-1.56.26Z"/><path class="cls-9" d="M34.37,38.78l5.08-8.33h1.66l5.17,8.33H44.57l-1.19-2.05H37.09L35.9,38.78Zm3.37-3.11h5l-2.51-4.26Z"/><path class="cls-9" d="M57.23,31.59H50.64v2.32H56.5a2.61,2.61,0,0,1,1.7.41,2,2,0,0,1,.46,1.55v.94a2.07,2.07,0,0,1-.45,1.56,2.63,2.63,0,0,1-1.71.41H51.07a2.66,2.66,0,0,1-1.72-.41,2.06,2.06,0,0,1-.46-1.56v-.23l1.45-.3v1.34h6.92v-2.5H51.42a2.58,2.58,0,0,1-1.72-.42,2.06,2.06,0,0,1-.45-1.55v-.73a2.06,2.06,0,0,1,.45-1.55,2.58,2.58,0,0,1,1.72-.42h4.95a2.67,2.67,0,0,1,1.71.41,1.77,1.77,0,0,1,.48,1.42v.17l-1.33.34Z"/></g></g></svg>